<?xml version="1.0" encoding="UTF-8"?>
<svg version="1.1" xmlns="http://www.w3.org/2000/svg" width="1001" height="1024">
<path d="M0 0 C1.25215302 -0.00151062 1.25215302 -0.00151062 2.52960205 -0.00305176 C21.58306671 0.01242443 40.40595797 1.26737686 58.77685547 6.65673828 C61.04356628 7.31734122 63.31991269 7.9371448 65.59765625 8.55859375 C86.93335916 14.5154296 106.07594968 23.93295314 123.8125 37.25 C124.63492187 37.86746094 125.45734375 38.48492187 126.3046875 39.12109375 C144.56760443 53.45504487 159.12195174 70.6624063 169.8125 91.25 C170.14878418 91.89130859 170.48506836 92.53261719 170.83154297 93.19335938 C191.20113515 132.57393308 192.52365264 179.11138675 179.48950195 221.01708984 C172.79672351 241.69080084 162.73930825 260.79120485 149.8125 278.25 C149.03712891 279.29800781 149.03712891 279.29800781 148.24609375 280.3671875 C135.42556089 297.23468375 120.4111105 315.20884545 102.8125 327.25 C102.1525 327.25 101.4925 327.25 100.8125 327.25 C100.8125 327.91 100.8125 328.57 100.8125 329.25 C91.80506959 336.98766048 80.43480965 344.93884518 69.8125 350.25 C84.61963696 356.52457541 99.50321659 362.57691881 114.49316406 368.3996582 C121.0375629 370.94604201 127.54435931 373.53444048 133.984375 376.3359375 C149.36601792 383.23349729 149.36601792 383.23349729 165.8125 382.25 C166.56837402 382.06808105 167.32424805 381.88616211 168.10302734 381.69873047 C196.23077949 374.85476814 216.11106708 357.75242935 231.09716797 333.14013672 C234.42822238 327.56241572 237.6343196 321.91587953 240.8125 316.25 C241.28510254 315.40920898 241.75770508 314.56841797 242.24462891 313.70214844 C247.2123844 304.83781502 252.05027838 295.92959669 256.5480957 286.81738281 C267.7376692 264.17600199 279.454785 242.05647516 293.8125 221.25 C294.29509277 220.54810547 294.77768555 219.84621094 295.27490234 219.12304688 C303.6698088 206.95056752 312.56571968 195.58315157 322.58984375 184.69140625 C324.32375732 182.78684389 325.99771443 180.8695726 327.625 178.875 C333.18558213 172.20230145 339.87931996 166.50090225 346.28222656 160.65234375 C347.55706285 159.4840828 348.82268255 158.30577438 350.0859375 157.125 C379.7010827 130.04829582 428.12241525 125.02067281 466.37988281 126.09326172 C497.7454134 127.52545735 532.8690915 135.10356897 558.7890625 153.80078125 C561.18384514 155.51596341 563.67525556 157.02489381 566.1875 158.5625 C592.75111889 175.45991313 614.22762643 201.21434564 629.8125 228.25 C630.54551678 229.48961653 631.27859246 230.72919823 632.01171875 231.96875 C641.51839164 248.24274759 648.36919655 265.57783277 654.8125 283.25 C655.07772461 283.96494629 655.34294922 284.67989258 655.61621094 285.41650391 C670.46044201 325.75073125 676.55423815 369.61012204 679.8125 412.25 C679.86518036 412.93906433 679.91786072 413.62812866 679.97213745 414.33807373 C685.01211281 482.78659464 675.81942472 550.26935338 644.0625 611.75 C643.74634735 612.36324127 643.4301947 612.97648254 643.10446167 613.60830688 C639.38700071 620.77987995 635.46956681 627.64965215 630.8125 634.25 C630.05791504 635.33909668 630.05791504 635.33909668 629.28808594 636.45019531 C623.27101548 645.08436995 617.15987437 653.39294486 609.90625 661.03515625 C608.10340597 662.94226924 606.44352416 664.88449575 604.8125 666.9375 C603.8225 668.0821875 603.8225 668.0821875 602.8125 669.25 C602.1525 669.25 601.4925 669.25 600.8125 669.25 C600.8125 669.91 600.8125 670.57 600.8125 671.25 C600.1525 671.25 599.4925 671.25 598.8125 671.25 C598.58304688 671.81589844 598.35359375 672.38179687 598.1171875 672.96484375 C596.46809503 675.85322427 594.43516567 677.62241037 591.9375 679.8125 C590.64199219 680.95912109 590.64199219 680.95912109 589.3203125 682.12890625 C583.26553867 687.25 583.26553867 687.25 580.8125 687.25 C580.8125 687.91 580.8125 688.57 580.8125 689.25 C578.53590123 691.01490025 576.26185896 692.64525225 573.875 694.25 C573.15425293 694.73766846 572.43350586 695.22533691 571.69091797 695.7277832 C536.2992674 719.41025584 495.74242059 733.1526309 452.8125 731.25 C452.07692871 731.2195459 451.34135742 731.1890918 450.58349609 731.15771484 C412.77966847 729.263897 376.85113852 714.26158263 349.23828125 688.484375 C346.76007129 686.14055558 346.76007129 686.14055558 343.6875 683.8125 C339.15697459 679.77442301 335.561975 675.00591303 331.8125 670.25 C331.20148437 669.49332031 330.59046875 668.73664062 329.9609375 667.95703125 C321.33896187 657.1500344 314.64388157 645.73202241 308.8125 633.25 C308.27625 632.10660156 307.74 630.96320312 307.1875 629.78515625 C292.34093591 596.65102754 288.18736244 560.21379599 288.8125 524.25 C288.81975098 523.56518555 288.82700195 522.88037109 288.83447266 522.17480469 C289.08490389 505.10303488 292.1766866 488.08417412 294.8125 471.25 C294.9892627 470.10257324 295.16602539 468.95514648 295.34814453 467.77294922 C295.5129834 466.77408691 295.67782227 465.77522461 295.84765625 464.74609375 C295.98695557 463.89072021 296.12625488 463.03534668 296.26977539 462.15405273 C296.44887451 461.52571533 296.62797363 460.89737793 296.8125 460.25 C297.4725 459.92 298.1325 459.59 298.8125 459.25 C299.11542969 460.4359375 299.41835938 461.621875 299.73046875 462.84375 C308.35768805 496.32557727 319.69911266 534.46455518 349.125 555.9375 C349.9603125 556.5871875 349.9603125 556.5871875 350.8125 557.25 C350.8125 557.91 350.8125 558.57 350.8125 559.25 C351.32167969 559.49234375 351.83085938 559.7346875 352.35546875 559.984375 C354.98854481 561.34068127 357.53245573 562.82703079 360.08886719 564.3215332 C391.12934497 582.28704714 428.17037108 585.35486676 462.8125 576.25 C478.21727741 571.83787303 493.65918269 566.84132474 507.8125 559.25 C508.88564453 558.67765625 508.88564453 558.67765625 509.98046875 558.09375 C555.65478006 533.61170709 592.0196175 499.11613586 607.79394531 448.66040039 C625.26603312 389.26380702 619.1977433 311.94913223 589.86352539 257.57421875 C579.08008279 238.35630771 563.58757211 220.91257767 541.7253418 214.65234375 C516.52707022 208.52443925 491.98377464 218.29524569 470.60595703 231.13183594 C467.16752988 233.27558714 463.87706706 235.61021344 460.6328125 238.03515625 C458.8125 239.25 458.8125 239.25 456.8125 239.25 C456.8125 239.91 456.8125 240.57 456.8125 241.25 C455.265625 242.58984375 455.265625 242.58984375 453.0625 244.1875 C439.49823507 254.47763202 426.97437223 266.84983759 417.8125 281.25 C417.46477539 281.78963379 417.11705078 282.32926758 416.75878906 282.88525391 C407.95456655 296.64137434 402.01499711 311.22304563 396.67080688 326.59017944 C392.323244 339.024582 387.73463488 350.98936608 380.8125 362.25 C380.44560059 362.86278809 380.07870117 363.47557617 379.70068359 364.10693359 C361.03709546 395.14819396 333.00273872 417.60882207 297.84033203 427.04785156 C291.20810531 428.67351282 284.53602763 430.06009237 277.8125 431.25 C276.27734741 431.52275757 276.27734741 431.52275757 274.71118164 431.80102539 C266.88731087 433.1027429 259.17348006 433.69966779 251.25 433.9375 C250.02837158 433.97584961 248.80674316 434.01419922 247.5480957 434.05371094 C230.10646122 434.51616551 213.3116251 433.03411109 196.06054688 430.50952148 C193.52739467 430.17354571 193.52739467 430.17354571 189.8125 430.25 C190.89311735 432.75120421 191.9769199 435.2509503 193.0625 437.75 C193.36285156 438.44609375 193.66320312 439.1421875 193.97265625 439.859375 C195.4740077 443.30928896 197.02418764 446.70126106 198.75390625 450.04296875 C201.37813489 455.23175561 203.42575225 460.63556051 205.5 466.0625 C205.93207764 467.19179932 206.36415527 468.32109863 206.80932617 469.48461914 C219.26904973 502.41145468 229.98063985 536.98046898 232.8125 572.25 C232.92207031 573.51714844 233.03164063 574.78429687 233.14453125 576.08984375 C234.93938601 600.04517193 234.5362606 624.83235337 228.8125 648.25 C228.64911133 648.95334473 228.48572266 649.65668945 228.31738281 650.38134766 C220.34415155 684.53654812 204.31598789 715.06262509 180.2578125 740.59375 C177.98273752 743.06507745 175.89399979 745.61581075 173.8125 748.25 C170.10289182 752.16012755 166.1705004 756.05559669 161.8125 759.25 C161.1525 759.25 160.4925 759.25 159.8125 759.25 C159.8125 759.91 159.8125 760.57 159.8125 761.25 C156.0082784 764.49215643 151.87042477 767.33343899 147.8125 770.25 C146.81476563 770.97832031 145.81703125 771.70664062 144.7890625 772.45703125 C119.64398547 790.39471473 91.58466852 802.59004112 62.0625 811.3125 C60.99515625 811.63347656 59.9278125 811.95445312 58.828125 812.28515625 C45.80705248 815.60187674 32.91304589 815.61026246 19.5625 815.5625 C18.53982025 815.56100952 17.5171405 815.55951904 16.46347046 815.5579834 C1.05584359 815.51755571 -13.99098423 815.0113798 -29.1875 812.25 C-29.98333496 812.11078125 -30.77916992 811.9715625 -31.59912109 811.828125 C-37.17764882 810.8267022 -42.68018216 809.58436768 -48.1875 808.25 C-49.20569824 808.00765625 -50.22389648 807.7653125 -51.27294922 807.515625 C-66.98766131 803.74020764 -82.1628066 799.20732126 -97.1875 793.25 C-98.41605713 792.76877686 -98.41605713 792.76877686 -99.66943359 792.27783203 C-111.24758806 787.70830184 -122.24707285 782.30678464 -133.16943359 776.34716797 C-134.88235439 775.41589939 -136.60609545 774.50457655 -138.33203125 773.59765625 C-153.80557882 765.41910475 -168.5347832 755.16229806 -182.1875 744.25 C-182.95191406 743.65960937 -183.71632812 743.06921875 -184.50390625 742.4609375 C-201.44458438 729.24557703 -220.08123816 713.09080692 -232.1875 695.25 C-232.1875 694.59 -232.1875 693.93 -232.1875 693.25 C-232.8475 693.25 -233.5075 693.25 -234.1875 693.25 C-235.58862305 691.68041992 -235.58862305 691.68041992 -237.19921875 689.48046875 C-237.78880371 688.67947754 -238.37838867 687.87848633 -238.98583984 687.05322266 C-239.6092627 686.19003418 -240.23268555 685.3268457 -240.875 684.4375 C-241.51131348 683.56399902 -242.14762695 682.69049805 -242.80322266 681.79052734 C-247.17521399 675.75002535 -251.3264995 669.6307105 -255.1875 663.25 C-255.84105469 662.20585938 -256.49460937 661.16171875 -257.16796875 660.0859375 C-261.42702809 653.26185368 -265.41121481 646.35054621 -269.1875 639.25 C-269.84429235 638.03865026 -270.50189185 636.82773793 -271.16015625 635.6171875 C-271.85701557 634.32825729 -272.55363185 633.03919564 -273.25 631.75 C-273.72469727 630.87915771 -273.72469727 630.87915771 -274.20898438 629.99072266 C-302.48991499 577.30514915 -314.52639879 515.35825173 -319.1875 456.25 C-319.27379166 455.18322525 -319.36008331 454.1164505 -319.44898987 453.01734924 C-320.1884335 443.08906302 -320.35093934 433.22073016 -320.35546875 423.26953125 C-320.35869785 421.56442744 -320.36206302 419.85932388 -320.36555481 418.15422058 C-320.37149886 414.5950761 -320.37339991 411.03595572 -320.37280273 407.47680664 C-320.37272195 403.89049178 -320.37959515 400.30430596 -320.39331055 396.71801758 C-320.47351322 375.4636983 -320.17687203 354.42655186 -318.1875 333.25 C-317.5275 333.25 -316.8675 333.25 -316.1875 333.25 C-316.07269287 334.05590576 -315.95788574 334.86181152 -315.83959961 335.69213867 C-308.4250764 387.26056415 -297.67740927 437.40057999 -279.1875 486.25 C-278.87925293 487.07532227 -278.57100586 487.90064453 -278.25341797 488.75097656 C-274.71628224 498.21484694 -270.86716862 507.28352383 -266.1875 516.25 C-265.58397057 517.46713448 -264.98390137 518.68598894 -264.38671875 519.90625 C-257.21196726 534.54792917 -249.58672353 548.89883021 -240.1875 562.25 C-239.795625 562.81170898 -239.40375 563.37341797 -239 563.95214844 C-232.77288755 572.86956807 -226.27495103 581.49123354 -219.1875 589.75 C-217.1875 592.25 -217.1875 592.25 -217.1875 594.25 C-216.1975 594.58 -215.2075 594.91 -214.1875 595.25 C-212.78515625 596.67578125 -212.78515625 596.67578125 -211.25 598.5625 C-203.43515332 607.7457692 -194.84396656 616.02136665 -185.1875 623.25 C-184.63191406 623.6713623 -184.07632813 624.09272461 -183.50390625 624.52685547 C-170.15813328 634.63304968 -156.31504799 643.08989518 -141.1875 650.25 C-140.55505371 650.55292969 -139.92260742 650.85585938 -139.27099609 651.16796875 C-121.77135204 659.47565155 -103.48346036 664.71423749 -84.40527344 667.87988281 C-82.48816617 668.19982277 -80.57558217 668.54665007 -78.6640625 668.8984375 C-67.11363369 670.99024744 -55.52942551 671.41577816 -43.8125 671.375 C-42.7090625 671.37886719 -41.605625 671.38273438 -40.46875 671.38671875 C-25.80121553 671.36970305 -11.62698951 669.94643243 2.8125 667.5625 C3.61766052 667.43127747 4.42282104 667.30005493 5.25238037 667.16485596 C44.99873044 660.64327098 82.51100074 647.1060906 107.66796875 613.79296875 C109.43818986 611.31153298 111.13617105 608.79568094 112.8125 606.25 C113.38742187 605.39792969 113.96234375 604.54585937 114.5546875 603.66796875 C135.6158397 571.70181997 141.86605719 534.56863772 134.8125 497.25 C134.61914062 496.21230469 134.42578125 495.17460938 134.2265625 494.10546875 C131.27690378 481.32999885 123.95826859 469.33758818 115.8125 459.25 C115.22597656 458.51136719 114.63945312 457.77273438 114.03515625 457.01171875 C110.11645827 452.29328649 105.88129439 448.67994391 100.8125 445.25 C100.00039063 444.68410156 99.18828125 444.11820313 98.3515625 443.53515625 C83.10435063 433.3181829 65.17133478 427.882155 46.8125 427.25 C45.51183594 427.1984375 44.21117187 427.146875 42.87109375 427.09375 C14.34525835 426.33620714 -15.19338822 432.16879622 -41.484375 443.31640625 C-44.1875 444.25 -44.1875 444.25 -47.1875 443.25 C-48.19555664 441.07397461 -48.19555664 441.07397461 -49.09765625 438.15234375 C-49.4426416 437.05672119 -49.78762695 435.96109863 -50.14306641 434.83227539 C-50.50835449 433.62949951 -50.87364258 432.42672363 -51.25 431.1875 C-51.84486679 429.28360553 -52.43973748 427.37971227 -53.03479004 425.47587585 C-53.66431836 423.45372299 -54.28788946 421.42982186 -54.90966797 419.40527344 C-56.81027985 413.21695541 -58.74352432 407.03881123 -60.67355347 400.85961914 C-61.31539609 398.80322122 -61.95574164 396.7463612 -62.59594727 394.68945312 C-65.1435534 386.51512772 -67.77010635 378.37224357 -70.5065918 370.2590332 C-73.11069091 362.52686198 -75.62406257 354.76601322 -78.125 347 C-78.33912537 346.3351358 -78.55325073 345.67027161 -78.77386475 344.98526001 C-81.95075441 335.11695854 -85.12049107 325.24630888 -88.27124023 315.36962891 C-89.98686651 309.99169078 -91.71535386 304.61829786 -93.4609375 299.25 C-93.83331543 298.09999512 -94.20569336 296.94999023 -94.58935547 295.76513672 C-95.30621616 293.55208036 -96.02644297 291.34011073 -96.75048828 289.12939453 C-97.07001465 288.14052246 -97.38954102 287.15165039 -97.71875 286.1328125 C-98.00298828 285.26027832 -98.28722656 284.38774414 -98.58007812 283.48876953 C-99.1875 281.25 -99.1875 281.25 -99.1875 278.25 C-89.25991293 277.85084959 -79.62296256 279.35228872 -69.8125 280.6875 C-67.22161099 281.03623618 -64.63048846 281.38300227 -62.03890991 281.72657776 C-60.43774331 281.93923591 -58.83697006 282.15489031 -57.23672485 282.37437439 C-47.14706781 283.7243147 -37.09973703 284.40790149 -26.921875 284.453125 C-25.88597229 284.45882507 -24.85006958 284.46452515 -23.78277588 284.47039795 C-21.6012878 284.47977532 -19.41978603 284.48635269 -17.23828125 284.49023438 C-13.98671021 284.49985441 -10.73579616 284.53091364 -7.484375 284.5625 C27.39743513 284.73935192 63.83414249 280.62036336 89.92578125 255.29296875 C105.09323341 239.80075348 114.23080357 219.36551279 114.03125 197.6640625 C113.18481582 184.45364328 107.83511331 173.75912677 98.8125 164.25 C70.37845369 139.30996785 27.5575228 136.25849046 -8.5703125 138.390625 C-42.20263185 140.9687122 -71.7326932 156.22870943 -98.7890625 175.5546875 C-101.43091647 177.4220566 -104.11512602 179.21380329 -106.8125 181 C-110.93282734 183.72925405 -115.01303401 186.50635569 -119.07202148 189.32592773 C-129.17187328 196.33180661 -139.4564413 202.85273135 -150.25 208.75 C-150.88172119 209.1008667 -151.51344238 209.4517334 -152.16430664 209.81323242 C-155.53067286 211.61526321 -157.27127101 212.25 -161.1875 212.25 C-162.6796875 210.44921875 -162.6796875 210.44921875 -164.0625 207.9375 C-164.57941406 207.01453125 -165.09632813 206.0915625 -165.62890625 205.140625 C-166.14324219 204.18671875 -166.65757812 203.2328125 -167.1875 202.25 C-167.65027344 201.41984375 -168.11304688 200.5896875 -168.58984375 199.734375 C-170.86267633 195.62942529 -173.06487922 191.48806719 -175.25 187.3359375 C-180.0338701 178.24679515 -184.9563241 169.25603923 -190.01953125 160.31982422 C-192.07257793 156.68150278 -194.09839142 153.02809389 -196.125 149.375 C-196.54346191 148.6212207 -196.96192383 147.86744141 -197.39306641 147.09082031 C-199.45944344 143.36768997 -201.5235339 139.64330138 -203.5859375 135.91796875 C-207.74569425 128.41030054 -211.9330014 120.91965945 -216.16625977 113.453125 C-218.3624348 109.57726359 -220.5499957 105.69657473 -222.73681641 101.81542969 C-224.01717783 99.55120251 -225.30951794 97.29438228 -226.60546875 95.0390625 C-227.25128906 93.89179688 -227.89710938 92.74453125 -228.5625 91.5625 C-229.10648437 90.60988281 -229.65046875 89.65726562 -230.2109375 88.67578125 C-231.1875 86.25 -231.1875 86.25 -231.265625 84.2109375 C-229.5158188 81.02831898 -226.55989994 79.44898069 -223.5625 77.5625 C-222.88590332 77.12534668 -222.20930664 76.68819336 -221.51220703 76.23779297 C-219.41405215 74.89172421 -217.30407749 73.5668819 -215.1875 72.25 C-214.58035156 71.87182129 -213.97320312 71.49364258 -213.34765625 71.10400391 C-209.00123965 68.41653418 -204.60315078 65.82175265 -200.1875 63.25 C-199.01574219 62.56550781 -199.01574219 62.56550781 -197.8203125 61.8671875 C-167.87450666 44.42212304 -137.06943627 29.35876225 -104.1875 18.25 C-103.44467773 17.99395996 -102.70185547 17.73791992 -101.93652344 17.47412109 C-78.68173794 9.50728987 -54.66987801 3.69991255 -30.1875 1.25 C-29.31601318 1.1571875 -28.44452637 1.064375 -27.54663086 0.96875 C-18.37271724 0.08535362 -9.20851339 0.00773959 0 0 Z " fill="#000000" transform="translate(320.1875,208.75)"/>
<path d="M0 0 C0.66 0 1.32 0 2 0 C2.27972656 0.83660156 2.55945313 1.67320313 2.84765625 2.53515625 C5.98824254 11.65396468 9.70533723 20.36387596 14 29 C14.45407227 29.91749023 14.90814453 30.83498047 15.37597656 31.78027344 C24.95100603 50.99859247 35.6859132 69.12370022 49 86 C50.06541016 87.35351562 50.06541016 87.35351562 51.15234375 88.734375 C53.08638777 91.16903748 55.0371684 93.58852118 57 96 C57.47308594 96.58652344 57.94617188 97.17304688 58.43359375 97.77734375 C62.93050631 103.28290959 67.98136538 107.91052826 73.42578125 112.44921875 C73.94527344 112.96097656 74.46476562 113.47273438 75 114 C75 114.66 75 115.32 75 116 C75.52464844 116.22300781 76.04929687 116.44601563 76.58984375 116.67578125 C79.87438798 118.48041738 82.66452335 120.83319008 85.5625 123.1875 C91.46793578 127.90430912 97.51899155 132.09957546 104 136 C104.80695313 136.51046875 105.61390625 137.0209375 106.4453125 137.546875 C138.34398997 157.44508538 175.34501983 161.57689763 212 157 C213.63388672 156.81630859 213.63388672 156.81630859 215.30078125 156.62890625 C243.20558058 152.80038357 270.64978066 140.38446405 295.14453125 127.01220703 C296.81086074 126.10318045 298.48318965 125.20517188 300.15625 124.30859375 C324.32241321 111.30909865 347.11196594 94.8964623 368.1796875 77.328125 C370 76 370 76 372 76 C372 75.34 372 74.68 372 74 C373.80078125 72.40625 373.80078125 72.40625 376.3125 70.5 C381.33816223 66.5911516 385.99018315 62.435024 390.65234375 58.1015625 C395.23420074 54 395.23420074 54 399 54 C400.96287973 56.33243425 402.73666516 58.64788748 404.5 61.125 C405.58321938 62.60910749 406.66788202 64.09216253 407.75390625 65.57421875 C408.29934082 66.3223584 408.84477539 67.07049805 409.40673828 67.84130859 C411.68409069 70.92686636 414.05188767 73.93535144 416.4375 76.9375 C420.71503637 82.35376349 424.96820259 87.7882101 429.1875 93.25 C429.76491943 93.98984131 430.34233887 94.72968262 430.93725586 95.49194336 C431.46714111 96.1803833 431.99702637 96.86882324 432.54296875 97.578125 C433.01758545 98.19075195 433.49220215 98.80337891 433.98120117 99.43457031 C435 101 435 101 435 103 C435.66 103 436.32 103 437 103 C438.55859375 104.9140625 438.55859375 104.9140625 440.4375 107.625 C443.63868103 112.14022822 446.93737749 116.53737834 450.375 120.875 C453.94904202 125.39262855 457.49740514 129.92672161 461 134.5 C464.62507183 139.22461624 468.26928825 143.93378099 471.9375 148.625 C472.39833984 149.21732422 472.85917969 149.80964844 473.33398438 150.41992188 C475.42995127 153.09344409 477.50972582 155.68231908 480 158 C478.59365534 161.18046187 476.92151657 163.33536362 474.47265625 165.79296875 C473.76826416 166.50138916 473.06387207 167.20980957 472.33813477 167.93969727 C471.58717529 168.68147217 470.83621582 169.42324707 470.0625 170.1875 C469.29413818 170.95054443 468.52577637 171.71358887 467.73413086 172.49975586 C462.08053355 178.05967007 456.27640481 183.15050439 450 188 C449.22011719 188.64710938 448.44023438 189.29421875 447.63671875 189.9609375 C440.47126216 195.89501448 432.80415299 200.95973789 425 206 C424.36288086 206.41540039 423.72576172 206.83080078 423.06933594 207.25878906 C406.2180386 218.21598748 388.44946642 227.0673304 370 235 C368.79730469 235.52078125 367.59460938 236.0415625 366.35546875 236.578125 C294.4727449 266.48133812 209.57673982 276.04561803 136.234375 245.86181641 C121.11445515 239.35153655 107.04417696 231.03398228 94 221 C92.77410156 220.06414062 92.77410156 220.06414062 91.5234375 219.109375 C72.31471631 204.10827845 57.14302048 186.52645477 44 166 C43.29101562 164.90558594 42.58203125 163.81117188 41.8515625 162.68359375 C12.70406628 116.62939128 -1.013947 54.27598664 0 0 Z " fill="#000000" transform="translate(431,52)"/>
<path d="M0 0 C3.30624333 1.55618743 5.27465794 3.62673167 7.77734375 6.28515625 C11.4963725 10.20506684 15.30633023 13.82174711 19.39672852 17.35253906 C22.77346763 20.30394697 26.01933229 23.39153584 29.27734375 26.47265625 C36.97893512 33.72289854 44.7117415 40.92894381 52.71484375 47.84765625 C55.85014721 50.56874279 58.7687369 53.44497708 61.6796875 56.40234375 C65.78178225 60.44160554 70.20409249 64.13530906 74.65234375 67.78515625 C77.46484375 70.16015625 77.46484375 70.16015625 79.68359375 72.3828125 C82.97147691 75.66607785 86.36473702 78.8201246 89.77734375 81.97265625 C90.42251953 82.57013672 91.06769531 83.16761719 91.73242188 83.78320312 C93.30907867 85.24307053 94.88684713 86.70173718 96.46484375 88.16015625 C95.88314279 91.69451061 94.65127926 93.34133358 92.12597656 95.83959961 C91.42144348 96.5439061 90.7169104 97.24821259 89.99102783 97.97386169 C88.84111359 99.10055016 88.84111359 99.10055016 87.66796875 100.25 C86.88218445 101.03153946 86.09640015 101.81307892 85.2868042 102.61830139 C82.76976601 105.11854248 80.24252429 107.60817925 77.71484375 110.09765625 C76.02665765 111.77079238 74.3391494 113.44461277 72.65234375 115.11914062 C69.54618043 118.20080466 66.43618445 121.27848128 63.32128906 124.35131836 C62.64849915 125.01583511 61.97570923 125.68035187 61.28253174 126.36500549 C59.7762742 127.85258717 58.26911393 129.33925472 56.76171875 130.82568359 C54.22915229 133.39970575 51.80956548 136.05683129 49.38671875 138.734375 C40.80478875 148.11353206 31.72434786 157.00782876 22.71484375 165.97265625 C20.93856714 167.74390505 19.16252378 169.51538778 17.38671875 171.28710938 C13.08210855 175.58082189 8.77464272 179.87165228 4.46484375 184.16015625 C1.40791198 182.69125645 -0.89008548 181.12988902 -3.41015625 178.84765625 C-5.81309098 176.69437707 -8.22025617 174.57199352 -10.72265625 172.53515625 C-12.93339951 170.66830639 -14.95248514 168.74916615 -16.98510742 166.69873047 C-20.29447854 163.41385777 -23.70460017 160.2330752 -27.09765625 157.03515625 C-28.22977539 155.96201172 -28.22977539 155.96201172 -29.38476562 154.8671875 C-30.11630859 154.17753906 -30.84785156 153.48789063 -31.6015625 152.77734375 C-32.26099854 152.15456543 -32.92043457 151.53178711 -33.59985352 150.89013672 C-35.52559654 149.10493794 -35.52559654 149.10493794 -37.78100586 147.55908203 C-38.35987549 147.09743652 -38.93874512 146.63579102 -39.53515625 146.16015625 C-39.53515625 145.50015625 -39.53515625 144.84015625 -39.53515625 144.16015625 C-40.11837646 143.89912109 -40.70159668 143.63808594 -41.30249023 143.36914062 C-43.67385995 142.08504846 -45.3151395 140.68072738 -47.2578125 138.81640625 C-47.95592041 138.15181396 -48.65402832 137.48722168 -49.37329102 136.80249023 C-50.10733154 136.09552002 -50.84137207 135.3885498 -51.59765625 134.66015625 C-53.12826 133.20244614 -54.6595099 131.74541417 -56.19140625 130.2890625 C-56.93519531 129.58023926 -57.67898438 128.87141602 -58.4453125 128.14111328 C-64.10048373 122.78059233 -69.89143631 117.56932073 -75.78515625 112.47265625 C-78.96062655 109.71842181 -81.91542653 106.80277755 -84.859375 103.8046875 C-87.29029225 101.41910204 -89.88284337 99.29494466 -92.53515625 97.16015625 C-91.95849124 93.69257847 -90.82510458 92.11352065 -88.28515625 89.72265625 C-87.64835938 89.11164063 -87.0115625 88.500625 -86.35546875 87.87109375 C-85.75476563 87.30648437 -85.1540625 86.741875 -84.53515625 86.16015625 C-81.29039367 83.00078216 -78.23564155 79.7263201 -75.22265625 76.34765625 C-71.70950402 72.41362721 -68.0704304 68.66714882 -64.3125 64.96875 C-62.730395 63.35882777 -61.27453693 61.71958493 -59.84765625 59.97265625 C-57.54770648 57.17542004 -55.11190223 54.70363004 -52.53515625 52.16015625 C-43.72559999 43.47049068 -43.72559999 43.47049068 -35.44140625 34.28515625 C-32.41445078 30.91084523 -29.16155969 27.76667701 -25.9375 24.58203125 C-23.19190139 21.85707624 -20.54245673 19.10992152 -18.03515625 16.16015625 C-14.92103008 12.54746308 -11.70560058 9.04489074 -8.41015625 5.59765625 C-7.90677734 5.04787109 -7.40339844 4.49808594 -6.88476562 3.93164062 C-3.26428477 0.2062183 -3.26428477 0.2062183 0 0 Z " fill="#000000" transform="translate(619.53515625,-0.16015625)"/>
</svg>
